<mxfile host="app.diagrams.net" agent="Mozilla/5.0 (Windows NT 10.0; Win64; x64; rv:128.0) Gecko/20100101 Firefox/128.0" version="27.0.6">
  <diagram name="Page-1" id="12e1b939-464a-85fe-373e-61e167be1490">
    <mxGraphModel dx="1317" dy="1882" grid="1" gridSize="10" guides="1" tooltips="1" connect="1" arrows="1" fold="1" page="1" pageScale="1.5" pageWidth="1169" pageHeight="826" background="none" math="0" shadow="0">
      <root>
        <mxCell id="0" />
        <mxCell id="1" parent="0" />
        <mxCell id="60da8b9f42644d3a-2" value="" style="whiteSpace=wrap;html=1;rounded=1;shadow=0;strokeWidth=8;fontSize=20;align=center;fillColor=#FED217;strokeColor=#FFFFFF;" parent="1" vertex="1">
          <mxGeometry x="316" y="405" width="280" height="430" as="geometry" />
        </mxCell>
        <mxCell id="60da8b9f42644d3a-3" value="Perception Layer" style="text;html=1;strokeColor=none;fillColor=none;align=center;verticalAlign=middle;whiteSpace=wrap;rounded=0;shadow=0;fontSize=27;fontColor=#FFFFFF;fontStyle=1" parent="1" vertex="1">
          <mxGeometry x="316" y="425" width="280" height="60" as="geometry" />
        </mxCell>
        <mxCell id="60da8b9f42644d3a-4" value="&lt;div&gt;&lt;font face=&quot;Helvetica&quot;&gt;DHT11 (Temp &amp;amp; Humi)&lt;/font&gt;&lt;/div&gt;&lt;div&gt;&lt;font face=&quot;Helvetica&quot;&gt;BH1750 (Light)&lt;/font&gt;&lt;/div&gt;&lt;div&gt;&lt;font face=&quot;Helvetica&quot;&gt;MQ5 (Gas)&amp;nbsp; &lt;br&gt;&lt;/font&gt;&lt;/div&gt;" style="text;html=1;strokeColor=none;fillColor=none;align=center;verticalAlign=middle;whiteSpace=wrap;rounded=0;shadow=0;fontSize=14;fontColor=#FFFFFF;" parent="1" vertex="1">
          <mxGeometry x="316" y="725" width="280" height="90" as="geometry" />
        </mxCell>
        <mxCell id="60da8b9f42644d3a-6" value="" style="line;strokeWidth=2;html=1;rounded=0;shadow=0;fontSize=27;align=center;fillColor=none;strokeColor=#FFFFFF;" parent="1" vertex="1">
          <mxGeometry x="336" y="485" width="240" height="10" as="geometry" />
        </mxCell>
        <mxCell id="60da8b9f42644d3a-7" value="" style="line;strokeWidth=2;html=1;rounded=0;shadow=0;fontSize=27;align=center;fillColor=none;strokeColor=#FFFFFF;" parent="1" vertex="1">
          <mxGeometry x="336" y="705" width="240" height="10" as="geometry" />
        </mxCell>
        <mxCell id="60da8b9f42644d3a-8" value="&lt;pre aria-label=&quot;译文：Sensors collect environmental data&quot; dir=&quot;ltr&quot; data-ved=&quot;2ahUKEwi36tONtreNAxWIS2wGHZp_NXAQ3ewLegQICRAV&quot; style=&quot;&quot; id=&quot;tw-target-text&quot; data-placeholder=&quot;翻译&quot; class=&quot;tw-data-text tw-text-large tw-ta&quot;&gt;&lt;font face=&quot;Helvetica&quot;&gt;&lt;span lang=&quot;en&quot; class=&quot;Y2IQFc&quot;&gt;Environmental&lt;br&gt;&lt;/span&gt;&lt;span lang=&quot;en&quot; class=&quot;Y2IQFc&quot;&gt;Data&lt;/span&gt;&lt;/font&gt;&lt;/pre&gt;" style="ellipse;whiteSpace=wrap;html=1;rounded=0;shadow=0;strokeWidth=6;fontSize=14;align=center;fillColor=#BFB4A9;strokeColor=#FFFFFF;fontColor=#FFFFFF;" parent="1" vertex="1">
          <mxGeometry x="259" y="545" width="115" height="115" as="geometry" />
        </mxCell>
        <mxCell id="60da8b9f42644d3a-9" value="" style="html=1;shadow=0;dashed=0;align=center;verticalAlign=middle;shape=mxgraph.arrows2.stylisedArrow;dy=0.6;dx=40;notch=15;feather=0.4;rounded=0;strokeWidth=1;fontSize=27;strokeColor=none;fillColor=#fff2cc;" parent="1" vertex="1">
          <mxGeometry x="406" y="573" width="100" height="60" as="geometry" />
        </mxCell>
        <mxCell id="60da8b9f42644d3a-17" value="" style="whiteSpace=wrap;html=1;rounded=1;shadow=0;strokeWidth=8;fontSize=20;align=center;fillColor=#FFC001;strokeColor=#FFFFFF;" parent="1" vertex="1">
          <mxGeometry x="596" y="405" width="280" height="430" as="geometry" />
        </mxCell>
        <mxCell id="60da8b9f42644d3a-18" value="Control Layer" style="text;html=1;strokeColor=none;fillColor=none;align=center;verticalAlign=middle;whiteSpace=wrap;rounded=0;shadow=0;fontSize=27;fontColor=#FFFFFF;fontStyle=1" parent="1" vertex="1">
          <mxGeometry x="596" y="425" width="280" height="60" as="geometry" />
        </mxCell>
        <mxCell id="60da8b9f42644d3a-19" value="&lt;font face=&quot;Helvetica&quot;&gt;STM32F103C8T6 MCU&lt;/font&gt;" style="text;html=1;strokeColor=none;fillColor=none;align=center;verticalAlign=middle;whiteSpace=wrap;rounded=0;shadow=0;fontSize=14;fontColor=#FFFFFF;" parent="1" vertex="1">
          <mxGeometry x="596" y="725" width="280" height="90" as="geometry" />
        </mxCell>
        <mxCell id="60da8b9f42644d3a-20" value="" style="line;strokeWidth=2;html=1;rounded=0;shadow=0;fontSize=27;align=center;fillColor=none;strokeColor=#FFFFFF;" parent="1" vertex="1">
          <mxGeometry x="616" y="485" width="240" height="10" as="geometry" />
        </mxCell>
        <mxCell id="60da8b9f42644d3a-21" value="" style="line;strokeWidth=2;html=1;rounded=0;shadow=0;fontSize=27;align=center;fillColor=none;strokeColor=#FFFFFF;" parent="1" vertex="1">
          <mxGeometry x="616" y="705" width="240" height="10" as="geometry" />
        </mxCell>
        <mxCell id="60da8b9f42644d3a-22" value="Input" style="ellipse;whiteSpace=wrap;html=1;rounded=0;shadow=0;strokeWidth=6;fontSize=14;align=center;fillColor=#397DAA;strokeColor=#FFFFFF;fontColor=#FFFFFF;" parent="1" vertex="1">
          <mxGeometry x="539" y="545" width="115" height="115" as="geometry" />
        </mxCell>
        <mxCell id="60da8b9f42644d3a-23" value="" style="html=1;shadow=0;dashed=0;align=center;verticalAlign=middle;shape=mxgraph.arrows2.stylisedArrow;dy=0.6;dx=40;notch=15;feather=0.4;rounded=0;strokeWidth=1;fontSize=27;strokeColor=none;fillColor=#fff2cc;" parent="1" vertex="1">
          <mxGeometry x="686" y="573" width="100" height="60" as="geometry" />
        </mxCell>
        <mxCell id="60da8b9f42644d3a-24" value="" style="whiteSpace=wrap;html=1;rounded=1;shadow=0;strokeWidth=8;fontSize=20;align=center;fillColor=#FFB001;strokeColor=#FFFFFF;" parent="1" vertex="1">
          <mxGeometry x="876" y="405" width="280" height="430" as="geometry" />
        </mxCell>
        <mxCell id="60da8b9f42644d3a-25" value="Execution Layer" style="text;html=1;strokeColor=none;fillColor=none;align=center;verticalAlign=middle;whiteSpace=wrap;rounded=0;shadow=0;fontSize=27;fontColor=#FFFFFF;fontStyle=1" parent="1" vertex="1">
          <mxGeometry x="876" y="425" width="280" height="60" as="geometry" />
        </mxCell>
        <mxCell id="60da8b9f42644d3a-26" value="&lt;div&gt;&lt;font face=&quot;Helvetica&quot;&gt;Fan (Motor) &lt;/font&gt;&lt;/div&gt;&lt;div&gt;&lt;font face=&quot;Helvetica&quot;&gt;Curtain Motor&lt;/font&gt;&lt;/div&gt;&lt;div&gt;&lt;font face=&quot;Helvetica&quot;&gt;Buzzer, LED&amp;nbsp; &lt;br&gt;&lt;/font&gt;&lt;/div&gt;" style="text;html=1;strokeColor=none;fillColor=none;align=center;verticalAlign=middle;whiteSpace=wrap;rounded=0;shadow=0;fontSize=14;fontColor=#FFFFFF;" parent="1" vertex="1">
          <mxGeometry x="876" y="725" width="280" height="90" as="geometry" />
        </mxCell>
        <mxCell id="60da8b9f42644d3a-27" value="" style="line;strokeWidth=2;html=1;rounded=0;shadow=0;fontSize=27;align=center;fillColor=none;strokeColor=#FFFFFF;" parent="1" vertex="1">
          <mxGeometry x="896" y="485" width="240" height="10" as="geometry" />
        </mxCell>
        <mxCell id="60da8b9f42644d3a-28" value="" style="line;strokeWidth=2;html=1;rounded=0;shadow=0;fontSize=27;align=center;fillColor=none;strokeColor=#FFFFFF;" parent="1" vertex="1">
          <mxGeometry x="896" y="705" width="240" height="10" as="geometry" />
        </mxCell>
        <mxCell id="60da8b9f42644d3a-29" value="&lt;div&gt;GPIO OUPUT&lt;/div&gt;&lt;div&gt;Control&lt;br&gt;&lt;/div&gt;" style="ellipse;whiteSpace=wrap;html=1;rounded=0;shadow=0;strokeWidth=6;fontSize=14;align=center;fillColor=#EF9353;strokeColor=#FFFFFF;fontColor=#FFFFFF;" parent="1" vertex="1">
          <mxGeometry x="819" y="545" width="115" height="115" as="geometry" />
        </mxCell>
        <mxCell id="60da8b9f42644d3a-30" value="" style="html=1;shadow=0;dashed=0;align=center;verticalAlign=middle;shape=mxgraph.arrows2.stylisedArrow;dy=0.6;dx=40;notch=15;feather=0.4;rounded=0;strokeWidth=1;fontSize=27;strokeColor=none;fillColor=#fff2cc;" parent="1" vertex="1">
          <mxGeometry x="966" y="573" width="100" height="60" as="geometry" />
        </mxCell>
        <mxCell id="60da8b9f42644d3a-31" value="" style="whiteSpace=wrap;html=1;rounded=1;shadow=0;strokeWidth=8;fontSize=20;align=center;fillColor=#FE9900;strokeColor=#FFFFFF;" parent="1" vertex="1">
          <mxGeometry x="1156" y="405" width="280" height="430" as="geometry" />
        </mxCell>
        <mxCell id="60da8b9f42644d3a-32" value="Communication Layer" style="text;html=1;strokeColor=none;fillColor=none;align=center;verticalAlign=middle;whiteSpace=wrap;rounded=0;shadow=0;fontSize=27;fontColor=#FFFFFF;fontStyle=1" parent="1" vertex="1">
          <mxGeometry x="1156" y="425" width="280" height="60" as="geometry" />
        </mxCell>
        <mxCell id="60da8b9f42644d3a-33" value="&lt;div&gt;ESP-01S WiFi Module&lt;/div&gt;&lt;div&gt;Blinker IoT Platform&lt;br&gt;&lt;/div&gt;&lt;div&gt;Mobile APP (Control)&lt;br&gt;&lt;/div&gt;" style="text;html=1;strokeColor=none;fillColor=none;align=center;verticalAlign=middle;whiteSpace=wrap;rounded=0;shadow=0;fontSize=14;fontColor=#FFFFFF;" parent="1" vertex="1">
          <mxGeometry x="1156" y="725" width="280" height="90" as="geometry" />
        </mxCell>
        <mxCell id="60da8b9f42644d3a-34" value="" style="line;strokeWidth=2;html=1;rounded=0;shadow=0;fontSize=27;align=center;fillColor=none;strokeColor=#FFFFFF;" parent="1" vertex="1">
          <mxGeometry x="1176" y="485" width="240" height="10" as="geometry" />
        </mxCell>
        <mxCell id="60da8b9f42644d3a-35" value="" style="line;strokeWidth=2;html=1;rounded=0;shadow=0;fontSize=27;align=center;fillColor=none;strokeColor=#FFFFFF;" parent="1" vertex="1">
          <mxGeometry x="1176" y="705" width="240" height="10" as="geometry" />
        </mxCell>
        <mxCell id="60da8b9f42644d3a-36" value="MQTT&lt;br&gt;Communication" style="ellipse;whiteSpace=wrap;html=1;rounded=0;shadow=0;strokeWidth=6;fontSize=14;align=center;fillColor=#68B85C;strokeColor=#FFFFFF;fontColor=#FFFFFF;" parent="1" vertex="1">
          <mxGeometry x="1099" y="545" width="115" height="115" as="geometry" />
        </mxCell>
        <mxCell id="60da8b9f42644d3a-37" value="" style="html=1;shadow=0;dashed=0;align=center;verticalAlign=middle;shape=mxgraph.arrows2.stylisedArrow;dy=0.6;dx=40;notch=15;feather=0.4;rounded=0;strokeWidth=1;fontSize=27;strokeColor=none;fillColor=#fff2cc;" parent="1" vertex="1">
          <mxGeometry x="1246" y="573" width="100" height="60" as="geometry" />
        </mxCell>
        <mxCell id="60da8b9f42644d3a-38" value="User" style="ellipse;whiteSpace=wrap;html=1;rounded=0;shadow=0;strokeWidth=6;fontSize=14;align=center;fillColor=#BF639A;strokeColor=#FFFFFF;fontColor=#FFFFFF;" parent="1" vertex="1">
          <mxGeometry x="1379" y="545" width="115" height="115" as="geometry" />
        </mxCell>
      </root>
    </mxGraphModel>
  </diagram>
</mxfile>
